G75*
G70*
%OFA0B0*%
%FSLAX24Y24*%
%IPPOS*%
%LPD*%
%AMOC8*
5,1,8,0,0,1.08239X$1,22.5*
%
%ADD10C,0.0000*%
%ADD11C,0.0050*%
%ADD12C,0.0060*%
%ADD13R,0.0160X0.0320*%
%ADD14C,0.0100*%
%ADD15C,0.0120*%
%ADD16R,0.0320X0.0160*%
%ADD17C,0.0160*%
%ADD18C,0.0010*%
%ADD19C,0.0020*%
%ADD20C,0.0080*%
D10*
X003351Y001260D02*
X026851Y001260D01*
X026851Y004510D01*
X030101Y004510D01*
X030101Y018010D01*
X026851Y018010D01*
X026851Y021260D01*
X003351Y021260D01*
X003351Y018010D01*
X000101Y018010D01*
X000101Y004510D01*
X003351Y004510D01*
X003351Y001260D01*
X002971Y009260D02*
X002974Y009317D01*
X002981Y009374D01*
X002994Y009430D01*
X003012Y009484D01*
X003035Y009537D01*
X003063Y009587D01*
X003095Y009635D01*
X003131Y009679D01*
X003171Y009720D01*
X003215Y009758D01*
X003261Y009791D01*
X003311Y009819D01*
X003363Y009843D01*
X003417Y009863D01*
X003473Y009877D01*
X003529Y009886D01*
X003587Y009890D01*
X003644Y009889D01*
X003701Y009882D01*
X003757Y009870D01*
X003812Y009854D01*
X003865Y009832D01*
X003916Y009806D01*
X003964Y009775D01*
X004010Y009740D01*
X004052Y009700D01*
X004090Y009658D01*
X004124Y009611D01*
X004154Y009562D01*
X004179Y009511D01*
X004199Y009457D01*
X004215Y009402D01*
X004225Y009346D01*
X004230Y009289D01*
X004230Y009231D01*
X004225Y009174D01*
X004215Y009118D01*
X004199Y009063D01*
X004179Y009009D01*
X004154Y008958D01*
X004124Y008909D01*
X004090Y008862D01*
X004052Y008820D01*
X004010Y008780D01*
X003964Y008745D01*
X003916Y008714D01*
X003865Y008688D01*
X003812Y008666D01*
X003757Y008650D01*
X003701Y008638D01*
X003644Y008631D01*
X003587Y008630D01*
X003529Y008634D01*
X003473Y008643D01*
X003417Y008657D01*
X003363Y008677D01*
X003311Y008701D01*
X003261Y008729D01*
X003215Y008762D01*
X003171Y008800D01*
X003131Y008841D01*
X003095Y008885D01*
X003063Y008933D01*
X003035Y008983D01*
X003012Y009036D01*
X002994Y009090D01*
X002981Y009146D01*
X002974Y009203D01*
X002971Y009260D01*
X020471Y003260D02*
X020474Y003317D01*
X020481Y003374D01*
X020494Y003430D01*
X020512Y003484D01*
X020535Y003537D01*
X020563Y003587D01*
X020595Y003635D01*
X020631Y003679D01*
X020671Y003720D01*
X020715Y003758D01*
X020761Y003791D01*
X020811Y003819D01*
X020863Y003843D01*
X020917Y003863D01*
X020973Y003877D01*
X021029Y003886D01*
X021087Y003890D01*
X021144Y003889D01*
X021201Y003882D01*
X021257Y003870D01*
X021312Y003854D01*
X021365Y003832D01*
X021416Y003806D01*
X021464Y003775D01*
X021510Y003740D01*
X021552Y003700D01*
X021590Y003658D01*
X021624Y003611D01*
X021654Y003562D01*
X021679Y003511D01*
X021699Y003457D01*
X021715Y003402D01*
X021725Y003346D01*
X021730Y003289D01*
X021730Y003231D01*
X021725Y003174D01*
X021715Y003118D01*
X021699Y003063D01*
X021679Y003009D01*
X021654Y002958D01*
X021624Y002909D01*
X021590Y002862D01*
X021552Y002820D01*
X021510Y002780D01*
X021464Y002745D01*
X021416Y002714D01*
X021365Y002688D01*
X021312Y002666D01*
X021257Y002650D01*
X021201Y002638D01*
X021144Y002631D01*
X021087Y002630D01*
X021029Y002634D01*
X020973Y002643D01*
X020917Y002657D01*
X020863Y002677D01*
X020811Y002701D01*
X020761Y002729D01*
X020715Y002762D01*
X020671Y002800D01*
X020631Y002841D01*
X020595Y002885D01*
X020563Y002933D01*
X020535Y002983D01*
X020512Y003036D01*
X020494Y003090D01*
X020481Y003146D01*
X020474Y003203D01*
X020471Y003260D01*
X024471Y019510D02*
X024474Y019567D01*
X024481Y019624D01*
X024494Y019680D01*
X024512Y019734D01*
X024535Y019787D01*
X024563Y019837D01*
X024595Y019885D01*
X024631Y019929D01*
X024671Y019970D01*
X024715Y020008D01*
X024761Y020041D01*
X024811Y020069D01*
X024863Y020093D01*
X024917Y020113D01*
X024973Y020127D01*
X025029Y020136D01*
X025087Y020140D01*
X025144Y020139D01*
X025201Y020132D01*
X025257Y020120D01*
X025312Y020104D01*
X025365Y020082D01*
X025416Y020056D01*
X025464Y020025D01*
X025510Y019990D01*
X025552Y019950D01*
X025590Y019908D01*
X025624Y019861D01*
X025654Y019812D01*
X025679Y019761D01*
X025699Y019707D01*
X025715Y019652D01*
X025725Y019596D01*
X025730Y019539D01*
X025730Y019481D01*
X025725Y019424D01*
X025715Y019368D01*
X025699Y019313D01*
X025679Y019259D01*
X025654Y019208D01*
X025624Y019159D01*
X025590Y019112D01*
X025552Y019070D01*
X025510Y019030D01*
X025464Y018995D01*
X025416Y018964D01*
X025365Y018938D01*
X025312Y018916D01*
X025257Y018900D01*
X025201Y018888D01*
X025144Y018881D01*
X025087Y018880D01*
X025029Y018884D01*
X024973Y018893D01*
X024917Y018907D01*
X024863Y018927D01*
X024811Y018951D01*
X024761Y018979D01*
X024715Y019012D01*
X024671Y019050D01*
X024631Y019091D01*
X024595Y019135D01*
X024563Y019183D01*
X024535Y019233D01*
X024512Y019286D01*
X024494Y019340D01*
X024481Y019396D01*
X024474Y019453D01*
X024471Y019510D01*
D11*
X020162Y021035D02*
X019862Y021035D01*
X020162Y021335D01*
X020162Y021410D01*
X020087Y021485D01*
X019937Y021485D01*
X019862Y021410D01*
X018222Y021035D02*
X017922Y021035D01*
X018072Y021035D02*
X018072Y021485D01*
X017922Y021335D01*
X013561Y016985D02*
X013636Y016910D01*
X013636Y016835D01*
X013561Y016760D01*
X013636Y016685D01*
X013636Y016610D01*
X013561Y016535D01*
X013411Y016535D01*
X013336Y016610D01*
X013176Y016535D02*
X013026Y016685D01*
X013101Y016685D02*
X012876Y016685D01*
X012876Y016535D02*
X012876Y016985D01*
X013101Y016985D01*
X013176Y016910D01*
X013176Y016760D01*
X013101Y016685D01*
X013336Y016910D02*
X013411Y016985D01*
X013561Y016985D01*
X013561Y016760D02*
X013486Y016760D01*
X014089Y015275D02*
X014089Y014935D01*
X013976Y014935D02*
X014203Y014935D01*
X013976Y015162D02*
X014089Y015275D01*
X016076Y015218D02*
X016132Y015275D01*
X016246Y015275D01*
X016303Y015218D01*
X016303Y015162D01*
X016246Y015105D01*
X016303Y015048D01*
X016303Y014992D01*
X016246Y014935D01*
X016132Y014935D01*
X016076Y014992D01*
X016189Y015105D02*
X016246Y015105D01*
X017142Y015535D02*
X017442Y015985D01*
X017602Y015910D02*
X017677Y015985D01*
X017827Y015985D01*
X017902Y015910D01*
X017902Y015835D01*
X017602Y015535D01*
X017902Y015535D01*
X017442Y015535D02*
X017142Y015985D01*
X021255Y014910D02*
X021255Y014610D01*
X021330Y014535D01*
X021480Y014535D01*
X021555Y014610D01*
X021715Y014610D02*
X021715Y014685D01*
X021790Y014760D01*
X021941Y014760D01*
X022016Y014685D01*
X022016Y014610D01*
X021941Y014535D01*
X021790Y014535D01*
X021715Y014610D01*
X021790Y014760D02*
X021715Y014835D01*
X021715Y014910D01*
X021790Y014985D01*
X021941Y014985D01*
X022016Y014910D01*
X022016Y014835D01*
X021941Y014760D01*
X021555Y014910D02*
X021480Y014985D01*
X021330Y014985D01*
X021255Y014910D01*
X022513Y012635D02*
X022513Y012185D01*
X022814Y012185D01*
X022974Y012185D02*
X022974Y012635D01*
X023124Y012485D01*
X023274Y012635D01*
X023274Y012185D01*
X023434Y012185D02*
X023734Y012485D01*
X023734Y012560D01*
X023659Y012635D01*
X023509Y012635D01*
X023434Y012560D01*
X023434Y012185D02*
X023734Y012185D01*
X023895Y012260D02*
X023970Y012185D01*
X024120Y012185D01*
X024195Y012260D01*
X024195Y012560D01*
X024120Y012635D01*
X023970Y012635D01*
X023895Y012560D01*
X023895Y012485D01*
X023970Y012410D01*
X024195Y012410D01*
X024355Y012485D02*
X024505Y012635D01*
X024505Y012185D01*
X024355Y012185D02*
X024655Y012185D01*
X024815Y012185D02*
X024815Y012260D01*
X025115Y012560D01*
X025115Y012635D01*
X024815Y012635D01*
X020576Y011600D02*
X020576Y011449D01*
X020501Y011374D01*
X020351Y011374D02*
X020276Y011525D01*
X020276Y011600D01*
X020351Y011675D01*
X020501Y011675D01*
X020576Y011600D01*
X020351Y011374D02*
X020125Y011374D01*
X020125Y011675D01*
X020200Y011214D02*
X020125Y011139D01*
X020125Y010989D01*
X020200Y010914D01*
X020501Y010914D01*
X020576Y010989D01*
X020576Y011139D01*
X020501Y011214D01*
X017826Y010989D02*
X017826Y010839D01*
X017751Y010764D01*
X017450Y010764D01*
X017375Y010839D01*
X017375Y010989D01*
X017450Y011064D01*
X017601Y011224D02*
X017601Y011525D01*
X017826Y011450D02*
X017375Y011450D01*
X017601Y011224D01*
X017751Y011064D02*
X017826Y010989D01*
X019375Y009275D02*
X019450Y009125D01*
X019601Y008974D01*
X019601Y009200D01*
X019676Y009275D01*
X019751Y009275D01*
X019826Y009200D01*
X019826Y009049D01*
X019751Y008974D01*
X019601Y008974D01*
X019751Y008814D02*
X019826Y008739D01*
X019826Y008589D01*
X019751Y008514D01*
X019450Y008514D01*
X019375Y008589D01*
X019375Y008739D01*
X019450Y008814D01*
X021375Y008775D02*
X021375Y008474D01*
X021450Y008314D02*
X021375Y008239D01*
X021375Y008089D01*
X021450Y008014D01*
X021751Y008014D01*
X021826Y008089D01*
X021826Y008239D01*
X021751Y008314D01*
X021751Y008474D02*
X021826Y008474D01*
X021751Y008474D02*
X021450Y008775D01*
X021375Y008775D01*
X026615Y007145D02*
X026615Y006845D01*
X026690Y006685D02*
X026841Y006685D01*
X026916Y006610D01*
X026916Y006385D01*
X027066Y006385D02*
X026615Y006385D01*
X026615Y006610D01*
X026690Y006685D01*
X026916Y006535D02*
X027066Y006685D01*
X027066Y006845D02*
X026991Y006845D01*
X026690Y007145D01*
X026615Y007145D01*
X022566Y003820D02*
X022491Y003895D01*
X022416Y003895D01*
X022341Y003820D01*
X022341Y003595D01*
X022491Y003595D01*
X022566Y003670D01*
X022566Y003820D01*
X022341Y003595D02*
X022190Y003745D01*
X022115Y003895D01*
X022190Y003435D02*
X022341Y003435D01*
X022416Y003360D01*
X022416Y003135D01*
X022566Y003135D02*
X022115Y003135D01*
X022115Y003360D01*
X022190Y003435D01*
X022416Y003285D02*
X022566Y003435D01*
X018066Y003435D02*
X017916Y003285D01*
X017916Y003360D02*
X017916Y003135D01*
X018066Y003135D02*
X017615Y003135D01*
X017615Y003360D01*
X017690Y003435D01*
X017841Y003435D01*
X017916Y003360D01*
X017991Y003595D02*
X018066Y003670D01*
X018066Y003820D01*
X017991Y003895D01*
X017841Y003895D01*
X017766Y003820D01*
X017766Y003745D01*
X017841Y003595D01*
X017615Y003595D01*
X017615Y003895D01*
X014366Y002775D02*
X014065Y002775D01*
X014216Y002775D02*
X014216Y003225D01*
X014065Y003075D01*
X013905Y003000D02*
X013830Y002925D01*
X013605Y002925D01*
X013755Y002925D02*
X013905Y002775D01*
X013905Y003000D02*
X013905Y003150D01*
X013830Y003225D01*
X013605Y003225D01*
X013605Y002775D01*
X008826Y003551D02*
X008375Y003851D01*
X008526Y004011D02*
X008375Y004161D01*
X008826Y004161D01*
X008826Y004011D02*
X008826Y004311D01*
X008826Y003851D02*
X008375Y003551D01*
X003326Y004331D02*
X003326Y004631D01*
X003326Y004481D02*
X002875Y004481D01*
X003026Y004331D01*
X002950Y006271D02*
X002875Y006346D01*
X002875Y006496D01*
X002950Y006571D01*
X003026Y006571D01*
X003326Y006271D01*
X003326Y006571D01*
X006975Y009335D02*
X006975Y009485D01*
X006975Y009410D02*
X007426Y009410D01*
X007426Y009335D02*
X007426Y009485D01*
X007351Y009642D02*
X007050Y009642D01*
X006975Y009717D01*
X006975Y009867D01*
X007050Y009942D01*
X007126Y010102D02*
X006975Y010252D01*
X007426Y010252D01*
X007426Y010102D02*
X007426Y010402D01*
X007351Y009942D02*
X007426Y009867D01*
X007426Y009717D01*
X007351Y009642D01*
X006076Y010739D02*
X006076Y010889D01*
X006001Y010964D01*
X006076Y011124D02*
X006076Y011425D01*
X006076Y011275D02*
X005625Y011275D01*
X005776Y011124D01*
X005700Y010964D02*
X005625Y010889D01*
X005625Y010739D01*
X005700Y010664D01*
X006001Y010664D01*
X006076Y010739D01*
X011375Y008570D02*
X011375Y008420D01*
X011450Y008345D01*
X011450Y008185D02*
X011375Y008110D01*
X011375Y007960D01*
X011450Y007885D01*
X011751Y007885D01*
X011826Y007960D01*
X011826Y008110D01*
X011751Y008185D01*
X011751Y008345D02*
X011826Y008420D01*
X011826Y008570D01*
X011751Y008645D01*
X011676Y008645D01*
X011601Y008570D01*
X011601Y008495D01*
X011601Y008570D02*
X011526Y008645D01*
X011450Y008645D01*
X011375Y008570D01*
X011226Y014545D02*
X011226Y014995D01*
X011451Y014995D01*
X011526Y014920D01*
X011526Y014770D01*
X011451Y014695D01*
X011226Y014695D01*
X011376Y014695D02*
X011526Y014545D01*
X011686Y014770D02*
X011986Y014770D01*
X011911Y014545D02*
X011911Y014995D01*
X011686Y014770D01*
X009866Y014785D02*
X009565Y014785D01*
X009866Y015085D01*
X009866Y015160D01*
X009791Y015235D01*
X009640Y015235D01*
X009565Y015160D01*
X009405Y015160D02*
X009330Y015235D01*
X009180Y015235D01*
X009105Y015160D01*
X009105Y014860D01*
X009180Y014785D01*
X009330Y014785D01*
X009405Y014860D01*
X008326Y014801D02*
X007875Y015101D01*
X007950Y015261D02*
X007875Y015336D01*
X007875Y015486D01*
X007950Y015561D01*
X008026Y015561D01*
X008101Y015486D01*
X008176Y015561D01*
X008251Y015561D01*
X008326Y015486D01*
X008326Y015336D01*
X008251Y015261D01*
X008326Y015101D02*
X007875Y014801D01*
X008101Y015411D02*
X008101Y015486D01*
X002826Y015581D02*
X002826Y015881D01*
X002826Y015731D02*
X002375Y015731D01*
X002526Y015581D01*
X002450Y017521D02*
X002375Y017596D01*
X002375Y017746D01*
X002450Y017821D01*
X002526Y017821D01*
X002826Y017521D01*
X002826Y017821D01*
X010726Y019545D02*
X010726Y019995D01*
X010951Y019995D01*
X011026Y019920D01*
X011026Y019770D01*
X010951Y019695D01*
X010726Y019695D01*
X010876Y019695D02*
X011026Y019545D01*
X011186Y019545D02*
X011486Y019845D01*
X011486Y019920D01*
X011411Y019995D01*
X011261Y019995D01*
X011186Y019920D01*
X011186Y019545D02*
X011486Y019545D01*
D12*
X011201Y019310D02*
X015001Y019310D01*
X015051Y019360D01*
X015401Y019360D01*
X015421Y019358D01*
X015439Y019352D01*
X015457Y019343D01*
X015472Y019331D01*
X015484Y019316D01*
X015493Y019298D01*
X015499Y019280D01*
X015501Y019260D01*
X015501Y017760D01*
X015499Y017740D01*
X015493Y017722D01*
X015484Y017704D01*
X015472Y017689D01*
X015457Y017677D01*
X015439Y017668D01*
X015421Y017662D01*
X015401Y017660D01*
X015051Y017660D01*
X015001Y017710D01*
X011201Y017710D01*
X011151Y017660D01*
X010801Y017660D01*
X010781Y017662D01*
X010763Y017668D01*
X010745Y017677D01*
X010730Y017689D01*
X010718Y017704D01*
X010709Y017722D01*
X010703Y017740D01*
X010701Y017760D01*
X010701Y019260D01*
X010703Y019280D01*
X010709Y019298D01*
X010718Y019316D01*
X010730Y019331D01*
X010745Y019343D01*
X010763Y019352D01*
X010781Y019358D01*
X010801Y019360D01*
X011151Y019360D01*
X011201Y019310D01*
X013751Y017260D02*
X013751Y015910D01*
X013751Y015410D02*
X013751Y014760D01*
X013851Y014660D01*
X014101Y014660D01*
X014851Y014660D01*
X014701Y014810D02*
X014101Y014810D01*
X014101Y014660D01*
X014951Y015410D02*
X014951Y015710D01*
X015251Y015710D01*
X015251Y015860D01*
X015401Y016010D01*
X015701Y016010D01*
X015701Y016310D01*
X015401Y016310D01*
X015251Y016460D01*
X015251Y016610D01*
X015251Y016910D01*
X014951Y016910D01*
X014951Y016610D01*
X014951Y016460D01*
X014801Y016310D01*
X014501Y016310D01*
X014501Y016010D01*
X014801Y016010D01*
X014951Y015860D01*
X014951Y015710D01*
X015251Y015710D02*
X015251Y015410D01*
X014951Y015410D01*
X015501Y014810D02*
X016101Y014810D01*
X016101Y014660D01*
X016351Y014660D01*
X016451Y014760D01*
X016451Y015410D01*
X016451Y015910D02*
X016451Y017260D01*
X016351Y017360D01*
X013851Y017360D01*
X013751Y017260D01*
X014951Y016610D02*
X015251Y016610D01*
X016867Y016260D02*
X021367Y016260D01*
X021367Y019260D01*
X021367Y019510D01*
X021367Y019760D02*
X021367Y021510D01*
X021367Y021760D02*
X021367Y022260D01*
X021117Y022260D01*
X020867Y022260D02*
X019117Y022260D01*
X018867Y022260D02*
X017367Y022260D01*
X017117Y022260D02*
X016867Y022260D01*
X016867Y021760D01*
X016867Y021510D02*
X016867Y019760D01*
X016867Y019510D02*
X016867Y019260D01*
X016867Y016260D01*
X017117Y016760D02*
X017217Y016760D01*
X017117Y016760D02*
X017117Y019010D01*
X021117Y019010D01*
X021117Y016760D01*
X021017Y016760D01*
X019217Y016760D02*
X019017Y016760D01*
X016101Y014660D02*
X015351Y014660D01*
X015551Y014360D02*
X015901Y014360D01*
X015921Y014358D01*
X015939Y014352D01*
X015957Y014343D01*
X015972Y014331D01*
X015984Y014316D01*
X015993Y014298D01*
X015999Y014280D01*
X016001Y014260D01*
X016001Y012760D01*
X015999Y012740D01*
X015993Y012722D01*
X015984Y012704D01*
X015972Y012689D01*
X015957Y012677D01*
X015939Y012668D01*
X015921Y012662D01*
X015901Y012660D01*
X015551Y012660D01*
X015501Y012710D01*
X011701Y012710D01*
X011651Y012660D01*
X011301Y012660D01*
X011281Y012662D01*
X011263Y012668D01*
X011245Y012677D01*
X011230Y012689D01*
X011218Y012704D01*
X011209Y012722D01*
X011203Y012740D01*
X011201Y012760D01*
X011201Y014260D01*
X011203Y014280D01*
X011209Y014298D01*
X011218Y014316D01*
X011230Y014331D01*
X011245Y014343D01*
X011263Y014352D01*
X011281Y014358D01*
X011301Y014360D01*
X011651Y014360D01*
X011701Y014310D01*
X015501Y014310D01*
X015551Y014360D01*
X016101Y011710D02*
X017101Y011710D01*
X017121Y011708D01*
X017139Y011702D01*
X017157Y011693D01*
X017172Y011681D01*
X017184Y011666D01*
X017193Y011648D01*
X017199Y011630D01*
X017201Y011610D01*
X017201Y008910D01*
X017199Y008890D01*
X017193Y008872D01*
X017184Y008854D01*
X017172Y008839D01*
X017157Y008827D01*
X017139Y008818D01*
X017121Y008812D01*
X017101Y008810D01*
X016101Y008810D01*
X016081Y008812D01*
X016063Y008818D01*
X016045Y008827D01*
X016030Y008839D01*
X016018Y008854D01*
X016009Y008872D01*
X016003Y008890D01*
X016001Y008910D01*
X016001Y011610D01*
X016003Y011630D01*
X016009Y011648D01*
X016018Y011666D01*
X016030Y011681D01*
X016045Y011693D01*
X016063Y011702D01*
X016081Y011708D01*
X016101Y011710D01*
X016601Y010860D02*
X016601Y010380D01*
X016601Y010130D02*
X016601Y009660D01*
X014601Y009360D02*
X014601Y011660D01*
X007601Y011660D01*
X007601Y010910D01*
X007640Y010908D01*
X007679Y010902D01*
X007717Y010893D01*
X007754Y010880D01*
X007790Y010863D01*
X007823Y010843D01*
X007855Y010819D01*
X007884Y010793D01*
X007910Y010764D01*
X007934Y010732D01*
X007954Y010699D01*
X007971Y010663D01*
X007984Y010626D01*
X007993Y010588D01*
X007999Y010549D01*
X008001Y010510D01*
X007999Y010471D01*
X007993Y010432D01*
X007984Y010394D01*
X007971Y010357D01*
X007954Y010321D01*
X007934Y010288D01*
X007910Y010256D01*
X007884Y010227D01*
X007855Y010201D01*
X007823Y010177D01*
X007790Y010157D01*
X007754Y010140D01*
X007717Y010127D01*
X007679Y010118D01*
X007640Y010112D01*
X007601Y010110D01*
X007601Y009360D01*
X014601Y009360D01*
X014451Y007260D02*
X014456Y007365D01*
X014470Y007468D01*
X014494Y007570D01*
X014526Y007670D01*
X014568Y007766D01*
X014618Y007858D01*
X014677Y007944D01*
X014743Y008026D01*
X014816Y008100D01*
X014896Y008168D01*
X014981Y008229D01*
X015072Y008281D01*
X015167Y008325D01*
X015266Y008360D01*
X015367Y008386D01*
X015470Y008403D01*
X015575Y008410D01*
X015679Y008407D01*
X015783Y008395D01*
X015886Y008374D01*
X015986Y008344D01*
X016083Y008304D01*
X016176Y008256D01*
X016264Y008200D01*
X016347Y008135D01*
X016423Y008064D01*
X016493Y007986D01*
X016555Y007902D01*
X016610Y007812D01*
X016656Y007718D01*
X016693Y007620D01*
X016721Y007520D01*
X016740Y007417D01*
X016750Y007312D01*
X016750Y007208D01*
X016740Y007103D01*
X016721Y007000D01*
X016693Y006900D01*
X016656Y006802D01*
X016610Y006708D01*
X016555Y006618D01*
X016493Y006534D01*
X016423Y006456D01*
X016347Y006385D01*
X016264Y006320D01*
X016176Y006264D01*
X016083Y006216D01*
X015986Y006176D01*
X015886Y006146D01*
X015783Y006125D01*
X015679Y006113D01*
X015575Y006110D01*
X015470Y006117D01*
X015367Y006134D01*
X015266Y006160D01*
X015167Y006195D01*
X015072Y006239D01*
X014981Y006291D01*
X014896Y006352D01*
X014816Y006420D01*
X014743Y006494D01*
X014677Y006576D01*
X014618Y006662D01*
X014568Y006754D01*
X014526Y006850D01*
X014494Y006950D01*
X014470Y007052D01*
X014456Y007155D01*
X014451Y007260D01*
X012601Y007110D02*
X012601Y005410D01*
X012599Y005390D01*
X012593Y005372D01*
X012584Y005354D01*
X012572Y005339D01*
X012557Y005327D01*
X012539Y005318D01*
X012521Y005312D01*
X012501Y005310D01*
X011701Y005310D01*
X011681Y005312D01*
X011663Y005318D01*
X011645Y005327D01*
X011630Y005339D01*
X011618Y005354D01*
X011609Y005372D01*
X011603Y005390D01*
X011601Y005410D01*
X011601Y007110D01*
X011603Y007130D01*
X011609Y007148D01*
X011618Y007166D01*
X011630Y007181D01*
X011645Y007193D01*
X011663Y007202D01*
X011681Y007208D01*
X011701Y007210D01*
X012501Y007210D01*
X012521Y007208D01*
X012539Y007202D01*
X012557Y007193D01*
X012572Y007181D01*
X012584Y007166D01*
X012593Y007148D01*
X012599Y007130D01*
X012601Y007110D01*
X012101Y006410D02*
X012101Y006360D01*
X012101Y006160D02*
X012101Y006110D01*
X010201Y005060D02*
X014001Y005060D01*
X014051Y005110D01*
X014401Y005110D01*
X014421Y005108D01*
X014439Y005102D01*
X014457Y005093D01*
X014472Y005081D01*
X014484Y005066D01*
X014493Y005048D01*
X014499Y005030D01*
X014501Y005010D01*
X014501Y003510D01*
X014499Y003490D01*
X014493Y003472D01*
X014484Y003454D01*
X014472Y003439D01*
X014457Y003427D01*
X014439Y003418D01*
X014421Y003412D01*
X014401Y003410D01*
X014051Y003410D01*
X014001Y003460D01*
X010201Y003460D01*
X010151Y003410D01*
X009801Y003410D01*
X009781Y003412D01*
X009763Y003418D01*
X009745Y003427D01*
X009730Y003439D01*
X009718Y003454D01*
X009709Y003472D01*
X009703Y003490D01*
X009701Y003510D01*
X009701Y005010D01*
X009703Y005030D01*
X009709Y005048D01*
X009718Y005066D01*
X009730Y005081D01*
X009745Y005093D01*
X009763Y005102D01*
X009781Y005108D01*
X009801Y005110D01*
X010151Y005110D01*
X010201Y005060D01*
X007601Y005426D02*
X007601Y005626D01*
X007601Y007426D02*
X007601Y007526D01*
X005351Y007526D01*
X005351Y003526D01*
X007601Y003526D01*
X007601Y003626D01*
X008101Y003276D02*
X008101Y007776D01*
X005101Y007776D01*
X004851Y007776D01*
X005101Y007776D02*
X005101Y003276D01*
X004851Y003276D01*
X005101Y003276D02*
X008101Y003276D01*
X004601Y003276D02*
X002851Y003276D01*
X002601Y003276D02*
X002101Y003276D01*
X002101Y003526D01*
X002101Y003776D02*
X002101Y005276D01*
X002101Y005526D02*
X002101Y007276D01*
X002101Y007526D02*
X002101Y007776D01*
X002601Y007776D01*
X002851Y007776D02*
X004601Y007776D01*
X004101Y012510D02*
X004105Y012601D01*
X004118Y012691D01*
X004138Y012780D01*
X004167Y012866D01*
X004203Y012950D01*
X004247Y013030D01*
X004297Y013105D01*
X004355Y013176D01*
X004418Y013241D01*
X004488Y013300D01*
X004562Y013352D01*
X004641Y013398D01*
X004724Y013436D01*
X004809Y013467D01*
X004898Y013489D01*
X004987Y013504D01*
X005078Y013510D01*
X005169Y013508D01*
X005260Y013497D01*
X005349Y013479D01*
X005436Y013452D01*
X005520Y013418D01*
X005601Y013376D01*
X005678Y013327D01*
X005750Y013271D01*
X005816Y013209D01*
X005877Y013141D01*
X005931Y013068D01*
X005978Y012990D01*
X006018Y012908D01*
X006051Y012823D01*
X006075Y012736D01*
X006092Y012646D01*
X006100Y012556D01*
X006100Y012464D01*
X006092Y012374D01*
X006075Y012284D01*
X006051Y012197D01*
X006018Y012112D01*
X005978Y012030D01*
X005931Y011952D01*
X005877Y011879D01*
X005816Y011811D01*
X005750Y011749D01*
X005678Y011693D01*
X005601Y011644D01*
X005520Y011602D01*
X005436Y011568D01*
X005349Y011541D01*
X005260Y011523D01*
X005169Y011512D01*
X005078Y011510D01*
X004987Y011516D01*
X004898Y011531D01*
X004809Y011553D01*
X004724Y011584D01*
X004641Y011622D01*
X004562Y011668D01*
X004488Y011720D01*
X004418Y011779D01*
X004355Y011844D01*
X004297Y011915D01*
X004247Y011990D01*
X004203Y012070D01*
X004167Y012154D01*
X004138Y012240D01*
X004118Y012329D01*
X004105Y012419D01*
X004101Y012510D01*
X005501Y013060D02*
X005601Y013060D01*
X005701Y013060D01*
X005601Y013060D02*
X005601Y012960D01*
X005601Y013060D02*
X005601Y013160D01*
X004601Y014526D02*
X004351Y014526D01*
X004601Y014526D02*
X007601Y014526D01*
X007601Y019026D01*
X004601Y019026D01*
X004351Y019026D01*
X004601Y019026D02*
X004601Y014526D01*
X004851Y014776D02*
X004851Y018776D01*
X007101Y018776D01*
X007101Y018676D01*
X007101Y016876D02*
X007101Y016676D01*
X008651Y016410D02*
X008651Y015610D01*
X008653Y015590D01*
X008659Y015572D01*
X008668Y015554D01*
X008680Y015539D01*
X008695Y015527D01*
X008713Y015518D01*
X008731Y015512D01*
X008751Y015510D01*
X010451Y015510D01*
X010471Y015512D01*
X010489Y015518D01*
X010507Y015527D01*
X010522Y015539D01*
X010534Y015554D01*
X010543Y015572D01*
X010549Y015590D01*
X010551Y015610D01*
X010551Y016410D01*
X010549Y016430D01*
X010543Y016448D01*
X010534Y016466D01*
X010522Y016481D01*
X010507Y016493D01*
X010489Y016502D01*
X010471Y016508D01*
X010451Y016510D01*
X008751Y016510D01*
X008731Y016508D01*
X008713Y016502D01*
X008695Y016493D01*
X008680Y016481D01*
X008668Y016466D01*
X008659Y016448D01*
X008653Y016430D01*
X008651Y016410D01*
X009451Y016010D02*
X009501Y016010D01*
X009701Y016010D02*
X009751Y016010D01*
X007101Y014876D02*
X007101Y014776D01*
X004851Y014776D01*
X004101Y014526D02*
X002351Y014526D01*
X002101Y014526D02*
X001601Y014526D01*
X001601Y014776D01*
X001601Y015026D02*
X001601Y016526D01*
X001601Y016776D02*
X001601Y018526D01*
X001601Y018776D02*
X001601Y019026D01*
X002101Y019026D01*
X002351Y019026D02*
X004101Y019026D01*
X016867Y019260D02*
X021367Y019260D01*
X022101Y015510D02*
X022105Y015601D01*
X022118Y015691D01*
X022138Y015780D01*
X022167Y015866D01*
X022203Y015950D01*
X022247Y016030D01*
X022297Y016105D01*
X022355Y016176D01*
X022418Y016241D01*
X022488Y016300D01*
X022562Y016352D01*
X022641Y016398D01*
X022724Y016436D01*
X022809Y016467D01*
X022898Y016489D01*
X022987Y016504D01*
X023078Y016510D01*
X023169Y016508D01*
X023260Y016497D01*
X023349Y016479D01*
X023436Y016452D01*
X023520Y016418D01*
X023601Y016376D01*
X023678Y016327D01*
X023750Y016271D01*
X023816Y016209D01*
X023877Y016141D01*
X023931Y016068D01*
X023978Y015990D01*
X024018Y015908D01*
X024051Y015823D01*
X024075Y015736D01*
X024092Y015646D01*
X024100Y015556D01*
X024100Y015464D01*
X024092Y015374D01*
X024075Y015284D01*
X024051Y015197D01*
X024018Y015112D01*
X023978Y015030D01*
X023931Y014952D01*
X023877Y014879D01*
X023816Y014811D01*
X023750Y014749D01*
X023678Y014693D01*
X023601Y014644D01*
X023520Y014602D01*
X023436Y014568D01*
X023349Y014541D01*
X023260Y014523D01*
X023169Y014512D01*
X023078Y014510D01*
X022987Y014516D01*
X022898Y014531D01*
X022809Y014553D01*
X022724Y014584D01*
X022641Y014622D01*
X022562Y014668D01*
X022488Y014720D01*
X022418Y014779D01*
X022355Y014844D01*
X022297Y014915D01*
X022247Y014990D01*
X022203Y015070D01*
X022167Y015154D01*
X022138Y015240D01*
X022118Y015329D01*
X022105Y015419D01*
X022101Y015510D01*
X023551Y015010D02*
X023651Y015010D01*
X023651Y014910D01*
X023651Y015010D02*
X023651Y015110D01*
X023651Y015010D02*
X023751Y015010D01*
X022101Y013410D02*
X022101Y012660D01*
X022140Y012658D01*
X022179Y012652D01*
X022217Y012643D01*
X022254Y012630D01*
X022290Y012613D01*
X022323Y012593D01*
X022355Y012569D01*
X022384Y012543D01*
X022410Y012514D01*
X022434Y012482D01*
X022454Y012449D01*
X022471Y012413D01*
X022484Y012376D01*
X022493Y012338D01*
X022499Y012299D01*
X022501Y012260D01*
X022499Y012221D01*
X022493Y012182D01*
X022484Y012144D01*
X022471Y012107D01*
X022454Y012071D01*
X022434Y012038D01*
X022410Y012006D01*
X022384Y011977D01*
X022355Y011951D01*
X022323Y011927D01*
X022290Y011907D01*
X022254Y011890D01*
X022217Y011877D01*
X022179Y011868D01*
X022140Y011862D01*
X022101Y011860D01*
X022101Y011110D01*
X026101Y011110D01*
X026101Y013410D01*
X022101Y013410D01*
X020201Y013310D02*
X020101Y013310D01*
X020101Y013210D01*
X020101Y013310D02*
X020001Y013310D01*
X020101Y013310D02*
X020101Y013410D01*
X018601Y012760D02*
X018605Y012851D01*
X018618Y012941D01*
X018638Y013030D01*
X018667Y013116D01*
X018703Y013200D01*
X018747Y013280D01*
X018797Y013355D01*
X018855Y013426D01*
X018918Y013491D01*
X018988Y013550D01*
X019062Y013602D01*
X019141Y013648D01*
X019224Y013686D01*
X019309Y013717D01*
X019398Y013739D01*
X019487Y013754D01*
X019578Y013760D01*
X019669Y013758D01*
X019760Y013747D01*
X019849Y013729D01*
X019936Y013702D01*
X020020Y013668D01*
X020101Y013626D01*
X020178Y013577D01*
X020250Y013521D01*
X020316Y013459D01*
X020377Y013391D01*
X020431Y013318D01*
X020478Y013240D01*
X020518Y013158D01*
X020551Y013073D01*
X020575Y012986D01*
X020592Y012896D01*
X020600Y012806D01*
X020600Y012714D01*
X020592Y012624D01*
X020575Y012534D01*
X020551Y012447D01*
X020518Y012362D01*
X020478Y012280D01*
X020431Y012202D01*
X020377Y012129D01*
X020316Y012061D01*
X020250Y011999D01*
X020178Y011943D01*
X020101Y011894D01*
X020020Y011852D01*
X019936Y011818D01*
X019849Y011791D01*
X019760Y011773D01*
X019669Y011762D01*
X019578Y011760D01*
X019487Y011766D01*
X019398Y011781D01*
X019309Y011803D01*
X019224Y011834D01*
X019141Y011872D01*
X019062Y011918D01*
X018988Y011970D01*
X018918Y012029D01*
X018855Y012094D01*
X018797Y012165D01*
X018747Y012240D01*
X018703Y012320D01*
X018667Y012404D01*
X018638Y012490D01*
X018618Y012579D01*
X018605Y012669D01*
X018601Y012760D01*
X020101Y009010D02*
X021101Y009010D01*
X021121Y009008D01*
X021139Y009002D01*
X021157Y008993D01*
X021172Y008981D01*
X021184Y008966D01*
X021193Y008948D01*
X021199Y008930D01*
X021201Y008910D01*
X021201Y005110D01*
X021199Y005090D01*
X021193Y005072D01*
X021184Y005054D01*
X021172Y005039D01*
X021157Y005027D01*
X021139Y005018D01*
X021121Y005012D01*
X021101Y005010D01*
X020101Y005010D01*
X020081Y005012D01*
X020063Y005018D01*
X020045Y005027D01*
X020030Y005039D01*
X020018Y005054D01*
X020009Y005072D01*
X020003Y005090D01*
X020001Y005110D01*
X020001Y008910D01*
X020003Y008930D01*
X020009Y008948D01*
X020018Y008966D01*
X020030Y008981D01*
X020045Y008993D01*
X020063Y009002D01*
X020081Y009008D01*
X020101Y009010D01*
X020601Y008010D02*
X020601Y007210D01*
X020601Y006810D02*
X020601Y006010D01*
X021601Y005660D02*
X021601Y007360D01*
X021603Y007380D01*
X021609Y007398D01*
X021618Y007416D01*
X021630Y007431D01*
X021645Y007443D01*
X021663Y007452D01*
X021681Y007458D01*
X021701Y007460D01*
X022501Y007460D01*
X022521Y007458D01*
X022539Y007452D01*
X022557Y007443D01*
X022572Y007431D01*
X022584Y007416D01*
X022593Y007398D01*
X022599Y007380D01*
X022601Y007360D01*
X022601Y005660D01*
X022599Y005640D01*
X022593Y005622D01*
X022584Y005604D01*
X022572Y005589D01*
X022557Y005577D01*
X022539Y005568D01*
X022521Y005562D01*
X022501Y005560D01*
X021701Y005560D01*
X021681Y005562D01*
X021663Y005568D01*
X021645Y005577D01*
X021630Y005589D01*
X021618Y005604D01*
X021609Y005622D01*
X021603Y005640D01*
X021601Y005660D01*
X022101Y006360D02*
X022101Y006410D01*
X022101Y006610D02*
X022101Y006660D01*
X022801Y007410D02*
X022801Y003610D01*
X022751Y003560D01*
X022751Y003210D01*
X022753Y003190D01*
X022759Y003172D01*
X022768Y003154D01*
X022780Y003139D01*
X022795Y003127D01*
X022813Y003118D01*
X022831Y003112D01*
X022851Y003110D01*
X024351Y003110D01*
X024371Y003112D01*
X024389Y003118D01*
X024407Y003127D01*
X024422Y003139D01*
X024434Y003154D01*
X024443Y003172D01*
X024449Y003190D01*
X024451Y003210D01*
X024451Y003560D01*
X024401Y003610D01*
X024401Y007410D01*
X024451Y007460D01*
X024451Y007810D01*
X024449Y007830D01*
X024443Y007848D01*
X024434Y007866D01*
X024422Y007881D01*
X024407Y007893D01*
X024389Y007902D01*
X024371Y007908D01*
X024351Y007910D01*
X022851Y007910D01*
X022831Y007908D01*
X022813Y007902D01*
X022795Y007893D01*
X022780Y007881D01*
X022768Y007866D01*
X022759Y007848D01*
X022753Y007830D01*
X022751Y007810D01*
X022751Y007460D01*
X022801Y007410D01*
X024751Y007460D02*
X024751Y007810D01*
X024753Y007830D01*
X024759Y007848D01*
X024768Y007866D01*
X024780Y007881D01*
X024795Y007893D01*
X024813Y007902D01*
X024831Y007908D01*
X024851Y007910D01*
X026351Y007910D01*
X026371Y007908D01*
X026389Y007902D01*
X026407Y007893D01*
X026422Y007881D01*
X026434Y007866D01*
X026443Y007848D01*
X026449Y007830D01*
X026451Y007810D01*
X026451Y007460D01*
X026401Y007410D01*
X026401Y003610D01*
X026451Y003560D01*
X026451Y003210D01*
X026449Y003190D01*
X026443Y003172D01*
X026434Y003154D01*
X026422Y003139D01*
X026407Y003127D01*
X026389Y003118D01*
X026371Y003112D01*
X026351Y003110D01*
X024851Y003110D01*
X024831Y003112D01*
X024813Y003118D01*
X024795Y003127D01*
X024780Y003139D01*
X024768Y003154D01*
X024759Y003172D01*
X024753Y003190D01*
X024751Y003210D01*
X024751Y003560D01*
X024801Y003610D01*
X024801Y007410D01*
X024751Y007460D01*
X019951Y007460D02*
X019951Y007810D01*
X019949Y007830D01*
X019943Y007848D01*
X019934Y007866D01*
X019922Y007881D01*
X019907Y007893D01*
X019889Y007902D01*
X019871Y007908D01*
X019851Y007910D01*
X018351Y007910D01*
X018331Y007908D01*
X018313Y007902D01*
X018295Y007893D01*
X018280Y007881D01*
X018268Y007866D01*
X018259Y007848D01*
X018253Y007830D01*
X018251Y007810D01*
X018251Y007460D01*
X018301Y007410D01*
X018301Y003610D01*
X018251Y003560D01*
X018251Y003210D01*
X018253Y003190D01*
X018259Y003172D01*
X018268Y003154D01*
X018280Y003139D01*
X018295Y003127D01*
X018313Y003118D01*
X018331Y003112D01*
X018351Y003110D01*
X019851Y003110D01*
X019871Y003112D01*
X019889Y003118D01*
X019907Y003127D01*
X019922Y003139D01*
X019934Y003154D01*
X019943Y003172D01*
X019949Y003190D01*
X019951Y003210D01*
X019951Y003560D01*
X019901Y003610D01*
X019901Y007410D01*
X019951Y007460D01*
D13*
X014581Y004260D03*
X009621Y004260D03*
X011121Y013510D03*
X016081Y013510D03*
X015581Y018510D03*
X010621Y018510D03*
D14*
X009701Y016310D02*
X009701Y016010D01*
X009701Y015710D01*
X009501Y015710D02*
X009501Y016010D01*
X009501Y016310D01*
X021801Y006610D02*
X022101Y006610D01*
X022401Y006610D01*
X022401Y006410D02*
X022101Y006410D01*
X021801Y006410D01*
X012401Y006360D02*
X012101Y006360D01*
X011801Y006360D01*
X011801Y006160D02*
X012101Y006160D01*
X012401Y006160D01*
D15*
X016351Y010130D02*
X016601Y010130D01*
X016851Y010130D01*
X016851Y010380D02*
X016601Y010380D01*
X016351Y010380D01*
X016191Y016160D02*
X016041Y016160D01*
X015801Y016810D02*
X015901Y016910D01*
X015101Y017080D02*
X015101Y017230D01*
X014351Y016810D02*
X014251Y016910D01*
X014161Y016160D02*
X014011Y016160D01*
D16*
X019101Y007990D03*
X023601Y007990D03*
X025601Y007990D03*
X025601Y003030D03*
X023601Y003030D03*
X019101Y003030D03*
D17*
X020251Y006810D02*
X020601Y006810D01*
X020951Y006810D01*
X020951Y007210D02*
X020601Y007210D01*
X020251Y007210D01*
D18*
X008025Y006530D02*
X007975Y006530D01*
X007976Y006531D02*
X007974Y006597D01*
X007968Y006662D01*
X007958Y006727D01*
X007945Y006791D01*
X007928Y006855D01*
X007908Y006917D01*
X007884Y006978D01*
X007856Y007038D01*
X007826Y007096D01*
X007792Y007152D01*
X007755Y007206D01*
X007714Y007258D01*
X007671Y007308D01*
X007626Y007355D01*
X007577Y007399D01*
X007609Y007436D01*
X007610Y007437D01*
X007660Y007391D01*
X007708Y007341D01*
X007753Y007290D01*
X007795Y007236D01*
X007834Y007179D01*
X007869Y007120D01*
X007901Y007060D01*
X007930Y006998D01*
X007955Y006934D01*
X007976Y006869D01*
X007994Y006803D01*
X008008Y006735D01*
X008018Y006668D01*
X008024Y006599D01*
X008026Y006531D01*
X008017Y006531D01*
X008015Y006599D01*
X008009Y006667D01*
X007999Y006734D01*
X007985Y006800D01*
X007968Y006866D01*
X007946Y006931D01*
X007922Y006994D01*
X007893Y007056D01*
X007861Y007116D01*
X007826Y007174D01*
X007788Y007230D01*
X007746Y007284D01*
X007702Y007335D01*
X007654Y007384D01*
X007604Y007430D01*
X007598Y007423D01*
X007648Y007378D01*
X007695Y007329D01*
X007739Y007278D01*
X007780Y007225D01*
X007819Y007169D01*
X007854Y007112D01*
X007885Y007052D01*
X007913Y006991D01*
X007938Y006928D01*
X007959Y006864D01*
X007976Y006798D01*
X007990Y006732D01*
X008000Y006666D01*
X008006Y006598D01*
X008008Y006531D01*
X007999Y006531D01*
X007997Y006598D01*
X007991Y006665D01*
X007981Y006731D01*
X007968Y006796D01*
X007950Y006861D01*
X007929Y006925D01*
X007905Y006987D01*
X007877Y007048D01*
X007846Y007107D01*
X007811Y007164D01*
X007773Y007220D01*
X007732Y007273D01*
X007688Y007323D01*
X007642Y007371D01*
X007592Y007416D01*
X007586Y007410D01*
X007635Y007365D01*
X007682Y007317D01*
X007725Y007267D01*
X007766Y007214D01*
X007803Y007159D01*
X007838Y007103D01*
X007869Y007044D01*
X007897Y006984D01*
X007921Y006922D01*
X007942Y006859D01*
X007959Y006794D01*
X007972Y006729D01*
X007982Y006664D01*
X007988Y006597D01*
X007990Y006531D01*
X007981Y006531D01*
X007979Y006597D01*
X007973Y006663D01*
X007963Y006728D01*
X007950Y006792D01*
X007933Y006856D01*
X007913Y006919D01*
X007888Y006980D01*
X007861Y007040D01*
X007830Y007098D01*
X007796Y007155D01*
X007759Y007209D01*
X007718Y007261D01*
X007675Y007311D01*
X007629Y007358D01*
X007581Y007403D01*
X007613Y005619D02*
X007581Y005657D01*
X007581Y005656D02*
X007629Y005701D01*
X007674Y005748D01*
X007717Y005797D01*
X007757Y005849D01*
X007794Y005903D01*
X007827Y005959D01*
X007858Y006017D01*
X007885Y006076D01*
X007909Y006137D01*
X007929Y006199D01*
X007945Y006262D01*
X007959Y006326D01*
X007968Y006391D01*
X007974Y006456D01*
X007976Y006521D01*
X008025Y006522D01*
X008026Y006521D01*
X008024Y006453D01*
X008018Y006385D01*
X008008Y006318D01*
X007994Y006251D01*
X007977Y006185D01*
X007956Y006120D01*
X007931Y006057D01*
X007903Y005995D01*
X007871Y005934D01*
X007836Y005876D01*
X007797Y005820D01*
X007756Y005766D01*
X007711Y005714D01*
X007664Y005665D01*
X007614Y005619D01*
X007608Y005625D01*
X007658Y005671D01*
X007705Y005720D01*
X007749Y005771D01*
X007790Y005825D01*
X007828Y005881D01*
X007863Y005939D01*
X007894Y005999D01*
X007923Y006060D01*
X007947Y006123D01*
X007968Y006188D01*
X007985Y006253D01*
X007999Y006319D01*
X008009Y006386D01*
X008015Y006453D01*
X008017Y006521D01*
X008008Y006521D01*
X008006Y006454D01*
X008000Y006387D01*
X007990Y006321D01*
X007977Y006255D01*
X007959Y006190D01*
X007939Y006126D01*
X007914Y006064D01*
X007886Y006003D01*
X007855Y005943D01*
X007821Y005886D01*
X007783Y005830D01*
X007742Y005777D01*
X007698Y005726D01*
X007651Y005678D01*
X007602Y005632D01*
X007596Y005639D01*
X007645Y005684D01*
X007691Y005732D01*
X007735Y005783D01*
X007775Y005836D01*
X007813Y005891D01*
X007847Y005948D01*
X007878Y006007D01*
X007906Y006067D01*
X007930Y006129D01*
X007951Y006193D01*
X007968Y006257D01*
X007981Y006322D01*
X007991Y006388D01*
X007997Y006454D01*
X007999Y006521D01*
X007990Y006521D01*
X007988Y006455D01*
X007982Y006389D01*
X007972Y006324D01*
X007959Y006259D01*
X007942Y006195D01*
X007922Y006132D01*
X007898Y006071D01*
X007870Y006011D01*
X007839Y005952D01*
X007805Y005895D01*
X007768Y005841D01*
X007728Y005788D01*
X007685Y005738D01*
X007639Y005691D01*
X007590Y005646D01*
X007585Y005653D01*
X007633Y005697D01*
X007678Y005744D01*
X007721Y005794D01*
X007761Y005846D01*
X007798Y005900D01*
X007832Y005957D01*
X007862Y006015D01*
X007889Y006074D01*
X007913Y006135D01*
X007934Y006198D01*
X007950Y006261D01*
X007964Y006325D01*
X007973Y006390D01*
X007979Y006455D01*
X007981Y006521D01*
X008025Y004530D02*
X007975Y004530D01*
X007976Y004531D02*
X007974Y004597D01*
X007968Y004662D01*
X007958Y004727D01*
X007945Y004791D01*
X007928Y004855D01*
X007908Y004917D01*
X007884Y004978D01*
X007856Y005038D01*
X007826Y005096D01*
X007792Y005152D01*
X007755Y005206D01*
X007714Y005258D01*
X007671Y005308D01*
X007626Y005355D01*
X007577Y005399D01*
X007609Y005436D01*
X007610Y005437D01*
X007660Y005391D01*
X007708Y005341D01*
X007753Y005290D01*
X007795Y005236D01*
X007834Y005179D01*
X007869Y005120D01*
X007901Y005060D01*
X007930Y004998D01*
X007955Y004934D01*
X007976Y004869D01*
X007994Y004803D01*
X008008Y004735D01*
X008018Y004668D01*
X008024Y004599D01*
X008026Y004531D01*
X008017Y004531D01*
X008015Y004599D01*
X008009Y004667D01*
X007999Y004734D01*
X007985Y004800D01*
X007968Y004866D01*
X007946Y004931D01*
X007922Y004994D01*
X007893Y005056D01*
X007861Y005116D01*
X007826Y005174D01*
X007788Y005230D01*
X007746Y005284D01*
X007702Y005335D01*
X007654Y005384D01*
X007604Y005430D01*
X007598Y005423D01*
X007648Y005378D01*
X007695Y005329D01*
X007739Y005278D01*
X007780Y005225D01*
X007819Y005169D01*
X007854Y005112D01*
X007885Y005052D01*
X007913Y004991D01*
X007938Y004928D01*
X007959Y004864D01*
X007976Y004798D01*
X007990Y004732D01*
X008000Y004666D01*
X008006Y004598D01*
X008008Y004531D01*
X007999Y004531D01*
X007997Y004598D01*
X007991Y004665D01*
X007981Y004731D01*
X007968Y004796D01*
X007950Y004861D01*
X007929Y004925D01*
X007905Y004987D01*
X007877Y005048D01*
X007846Y005107D01*
X007811Y005164D01*
X007773Y005220D01*
X007732Y005273D01*
X007688Y005323D01*
X007642Y005371D01*
X007592Y005416D01*
X007586Y005410D01*
X007635Y005365D01*
X007682Y005317D01*
X007725Y005267D01*
X007766Y005214D01*
X007803Y005159D01*
X007838Y005103D01*
X007869Y005044D01*
X007897Y004984D01*
X007921Y004922D01*
X007942Y004859D01*
X007959Y004794D01*
X007972Y004729D01*
X007982Y004664D01*
X007988Y004597D01*
X007990Y004531D01*
X007981Y004531D01*
X007979Y004597D01*
X007973Y004663D01*
X007963Y004728D01*
X007950Y004792D01*
X007933Y004856D01*
X007913Y004919D01*
X007888Y004980D01*
X007861Y005040D01*
X007830Y005098D01*
X007796Y005155D01*
X007759Y005209D01*
X007718Y005261D01*
X007675Y005311D01*
X007629Y005358D01*
X007581Y005403D01*
X007613Y003619D02*
X007581Y003657D01*
X007581Y003656D02*
X007629Y003701D01*
X007674Y003748D01*
X007717Y003797D01*
X007757Y003849D01*
X007794Y003903D01*
X007827Y003959D01*
X007858Y004017D01*
X007885Y004076D01*
X007909Y004137D01*
X007929Y004199D01*
X007945Y004262D01*
X007959Y004326D01*
X007968Y004391D01*
X007974Y004456D01*
X007976Y004521D01*
X008025Y004522D01*
X008026Y004521D01*
X008024Y004453D01*
X008018Y004385D01*
X008008Y004318D01*
X007994Y004251D01*
X007977Y004185D01*
X007956Y004120D01*
X007931Y004057D01*
X007903Y003995D01*
X007871Y003934D01*
X007836Y003876D01*
X007797Y003820D01*
X007756Y003766D01*
X007711Y003714D01*
X007664Y003665D01*
X007614Y003619D01*
X007608Y003625D01*
X007658Y003671D01*
X007705Y003720D01*
X007749Y003771D01*
X007790Y003825D01*
X007828Y003881D01*
X007863Y003939D01*
X007894Y003999D01*
X007923Y004060D01*
X007947Y004123D01*
X007968Y004187D01*
X007985Y004253D01*
X007999Y004319D01*
X008009Y004386D01*
X008015Y004453D01*
X008017Y004521D01*
X008008Y004521D01*
X008006Y004454D01*
X008000Y004387D01*
X007990Y004321D01*
X007977Y004255D01*
X007959Y004190D01*
X007939Y004126D01*
X007914Y004064D01*
X007886Y004003D01*
X007855Y003943D01*
X007821Y003886D01*
X007783Y003830D01*
X007742Y003777D01*
X007698Y003726D01*
X007651Y003678D01*
X007602Y003632D01*
X007596Y003639D01*
X007645Y003684D01*
X007691Y003732D01*
X007735Y003783D01*
X007775Y003836D01*
X007813Y003891D01*
X007847Y003948D01*
X007878Y004007D01*
X007906Y004067D01*
X007930Y004129D01*
X007951Y004193D01*
X007968Y004257D01*
X007981Y004322D01*
X007991Y004388D01*
X007997Y004454D01*
X007999Y004521D01*
X007990Y004521D01*
X007988Y004455D01*
X007982Y004389D01*
X007972Y004324D01*
X007959Y004259D01*
X007942Y004195D01*
X007922Y004132D01*
X007898Y004071D01*
X007870Y004011D01*
X007839Y003952D01*
X007805Y003895D01*
X007768Y003841D01*
X007728Y003788D01*
X007685Y003738D01*
X007639Y003691D01*
X007590Y003646D01*
X007584Y003653D01*
X007633Y003697D01*
X007678Y003744D01*
X007721Y003794D01*
X007761Y003846D01*
X007798Y003900D01*
X007832Y003957D01*
X007862Y004015D01*
X007889Y004074D01*
X007913Y004135D01*
X007934Y004198D01*
X007950Y004261D01*
X007963Y004325D01*
X007973Y004390D01*
X007979Y004455D01*
X007981Y004521D01*
X007113Y014869D02*
X007081Y014907D01*
X007081Y014906D02*
X007129Y014951D01*
X007174Y014998D01*
X007217Y015047D01*
X007257Y015099D01*
X007294Y015153D01*
X007327Y015209D01*
X007358Y015267D01*
X007385Y015326D01*
X007409Y015387D01*
X007429Y015449D01*
X007445Y015512D01*
X007459Y015576D01*
X007468Y015641D01*
X007474Y015706D01*
X007476Y015771D01*
X007525Y015772D01*
X007526Y015771D01*
X007524Y015703D01*
X007518Y015635D01*
X007508Y015568D01*
X007494Y015501D01*
X007477Y015435D01*
X007456Y015370D01*
X007431Y015307D01*
X007403Y015245D01*
X007371Y015184D01*
X007336Y015126D01*
X007297Y015070D01*
X007256Y015016D01*
X007211Y014964D01*
X007164Y014915D01*
X007114Y014869D01*
X007108Y014875D01*
X007158Y014921D01*
X007205Y014970D01*
X007249Y015021D01*
X007290Y015075D01*
X007328Y015131D01*
X007363Y015189D01*
X007394Y015249D01*
X007423Y015310D01*
X007447Y015373D01*
X007468Y015437D01*
X007485Y015503D01*
X007499Y015569D01*
X007509Y015636D01*
X007515Y015703D01*
X007517Y015771D01*
X007508Y015771D01*
X007506Y015704D01*
X007500Y015637D01*
X007490Y015571D01*
X007477Y015505D01*
X007459Y015440D01*
X007439Y015376D01*
X007414Y015314D01*
X007386Y015253D01*
X007355Y015193D01*
X007321Y015136D01*
X007283Y015080D01*
X007242Y015027D01*
X007198Y014976D01*
X007151Y014928D01*
X007102Y014882D01*
X007096Y014889D01*
X007145Y014934D01*
X007191Y014982D01*
X007235Y015033D01*
X007275Y015086D01*
X007313Y015141D01*
X007347Y015198D01*
X007378Y015257D01*
X007406Y015317D01*
X007430Y015379D01*
X007451Y015443D01*
X007468Y015507D01*
X007481Y015572D01*
X007491Y015638D01*
X007497Y015704D01*
X007499Y015771D01*
X007490Y015771D01*
X007488Y015705D01*
X007482Y015639D01*
X007472Y015574D01*
X007459Y015509D01*
X007442Y015445D01*
X007422Y015382D01*
X007398Y015321D01*
X007370Y015261D01*
X007339Y015202D01*
X007305Y015145D01*
X007268Y015091D01*
X007228Y015038D01*
X007185Y014988D01*
X007139Y014941D01*
X007090Y014896D01*
X007084Y014903D01*
X007133Y014947D01*
X007178Y014994D01*
X007221Y015044D01*
X007261Y015096D01*
X007298Y015150D01*
X007332Y015207D01*
X007362Y015265D01*
X007389Y015324D01*
X007413Y015385D01*
X007434Y015448D01*
X007450Y015511D01*
X007463Y015575D01*
X007473Y015640D01*
X007479Y015705D01*
X007481Y015771D01*
X007525Y015780D02*
X007475Y015780D01*
X007476Y015781D02*
X007474Y015847D01*
X007468Y015912D01*
X007458Y015977D01*
X007445Y016041D01*
X007428Y016105D01*
X007408Y016167D01*
X007384Y016228D01*
X007356Y016288D01*
X007326Y016346D01*
X007292Y016402D01*
X007255Y016456D01*
X007214Y016508D01*
X007171Y016558D01*
X007126Y016605D01*
X007077Y016649D01*
X007109Y016686D01*
X007110Y016687D01*
X007160Y016641D01*
X007208Y016591D01*
X007253Y016540D01*
X007295Y016486D01*
X007334Y016429D01*
X007369Y016370D01*
X007401Y016310D01*
X007430Y016248D01*
X007455Y016184D01*
X007476Y016119D01*
X007494Y016053D01*
X007508Y015985D01*
X007518Y015918D01*
X007524Y015849D01*
X007526Y015781D01*
X007517Y015781D01*
X007515Y015849D01*
X007509Y015917D01*
X007499Y015984D01*
X007485Y016050D01*
X007468Y016116D01*
X007446Y016181D01*
X007422Y016244D01*
X007393Y016306D01*
X007361Y016366D01*
X007326Y016424D01*
X007288Y016480D01*
X007246Y016534D01*
X007202Y016585D01*
X007154Y016634D01*
X007104Y016680D01*
X007098Y016673D01*
X007148Y016628D01*
X007195Y016579D01*
X007239Y016528D01*
X007280Y016475D01*
X007319Y016419D01*
X007354Y016362D01*
X007385Y016302D01*
X007413Y016241D01*
X007438Y016178D01*
X007459Y016114D01*
X007476Y016048D01*
X007490Y015982D01*
X007500Y015916D01*
X007506Y015848D01*
X007508Y015781D01*
X007499Y015781D01*
X007497Y015848D01*
X007491Y015915D01*
X007481Y015981D01*
X007468Y016046D01*
X007450Y016111D01*
X007429Y016175D01*
X007405Y016237D01*
X007377Y016298D01*
X007346Y016357D01*
X007311Y016414D01*
X007273Y016470D01*
X007232Y016523D01*
X007188Y016573D01*
X007142Y016621D01*
X007092Y016666D01*
X007086Y016660D01*
X007135Y016615D01*
X007182Y016567D01*
X007225Y016517D01*
X007266Y016464D01*
X007303Y016409D01*
X007338Y016353D01*
X007369Y016294D01*
X007397Y016234D01*
X007421Y016172D01*
X007442Y016109D01*
X007459Y016044D01*
X007472Y015979D01*
X007482Y015914D01*
X007488Y015847D01*
X007490Y015781D01*
X007481Y015781D01*
X007479Y015847D01*
X007473Y015913D01*
X007463Y015978D01*
X007450Y016042D01*
X007433Y016106D01*
X007413Y016169D01*
X007388Y016230D01*
X007361Y016290D01*
X007330Y016348D01*
X007296Y016405D01*
X007259Y016459D01*
X007218Y016511D01*
X007175Y016561D01*
X007129Y016608D01*
X007081Y016653D01*
X007113Y016869D02*
X007081Y016907D01*
X007081Y016906D02*
X007129Y016951D01*
X007174Y016998D01*
X007217Y017047D01*
X007257Y017099D01*
X007294Y017153D01*
X007327Y017209D01*
X007358Y017267D01*
X007385Y017326D01*
X007409Y017387D01*
X007429Y017449D01*
X007445Y017512D01*
X007459Y017576D01*
X007468Y017641D01*
X007474Y017706D01*
X007476Y017771D01*
X007525Y017772D01*
X007526Y017771D01*
X007524Y017703D01*
X007518Y017635D01*
X007508Y017568D01*
X007494Y017501D01*
X007477Y017435D01*
X007456Y017370D01*
X007431Y017307D01*
X007403Y017245D01*
X007371Y017184D01*
X007336Y017126D01*
X007297Y017070D01*
X007256Y017016D01*
X007211Y016964D01*
X007164Y016915D01*
X007114Y016869D01*
X007108Y016875D01*
X007158Y016921D01*
X007205Y016970D01*
X007249Y017021D01*
X007290Y017075D01*
X007328Y017131D01*
X007363Y017189D01*
X007394Y017249D01*
X007423Y017310D01*
X007447Y017373D01*
X007468Y017438D01*
X007485Y017503D01*
X007499Y017569D01*
X007509Y017636D01*
X007515Y017703D01*
X007517Y017771D01*
X007508Y017771D01*
X007506Y017704D01*
X007500Y017637D01*
X007490Y017571D01*
X007477Y017505D01*
X007459Y017440D01*
X007439Y017376D01*
X007414Y017314D01*
X007386Y017253D01*
X007355Y017193D01*
X007321Y017136D01*
X007283Y017080D01*
X007242Y017027D01*
X007198Y016976D01*
X007151Y016928D01*
X007102Y016882D01*
X007096Y016889D01*
X007145Y016934D01*
X007191Y016982D01*
X007235Y017033D01*
X007275Y017086D01*
X007313Y017141D01*
X007347Y017198D01*
X007378Y017257D01*
X007406Y017317D01*
X007430Y017379D01*
X007451Y017443D01*
X007468Y017507D01*
X007481Y017572D01*
X007491Y017638D01*
X007497Y017704D01*
X007499Y017771D01*
X007490Y017771D01*
X007488Y017705D01*
X007482Y017639D01*
X007472Y017574D01*
X007459Y017509D01*
X007442Y017445D01*
X007422Y017382D01*
X007398Y017321D01*
X007370Y017261D01*
X007339Y017202D01*
X007305Y017145D01*
X007268Y017091D01*
X007228Y017038D01*
X007185Y016988D01*
X007139Y016941D01*
X007090Y016896D01*
X007085Y016903D01*
X007133Y016947D01*
X007178Y016994D01*
X007221Y017044D01*
X007261Y017096D01*
X007298Y017150D01*
X007332Y017207D01*
X007362Y017265D01*
X007389Y017324D01*
X007413Y017385D01*
X007434Y017448D01*
X007450Y017511D01*
X007464Y017575D01*
X007473Y017640D01*
X007479Y017705D01*
X007481Y017771D01*
X007525Y017780D02*
X007475Y017780D01*
X007476Y017781D02*
X007474Y017847D01*
X007468Y017912D01*
X007458Y017977D01*
X007445Y018041D01*
X007428Y018105D01*
X007408Y018167D01*
X007384Y018228D01*
X007356Y018288D01*
X007326Y018346D01*
X007292Y018402D01*
X007255Y018456D01*
X007214Y018508D01*
X007171Y018558D01*
X007126Y018605D01*
X007077Y018649D01*
X007109Y018686D01*
X007110Y018687D01*
X007160Y018641D01*
X007208Y018591D01*
X007253Y018540D01*
X007295Y018486D01*
X007334Y018429D01*
X007369Y018370D01*
X007401Y018310D01*
X007430Y018248D01*
X007455Y018184D01*
X007476Y018119D01*
X007494Y018053D01*
X007508Y017985D01*
X007518Y017918D01*
X007524Y017849D01*
X007526Y017781D01*
X007517Y017781D01*
X007515Y017849D01*
X007509Y017917D01*
X007499Y017984D01*
X007485Y018050D01*
X007468Y018116D01*
X007446Y018181D01*
X007422Y018244D01*
X007393Y018306D01*
X007361Y018366D01*
X007326Y018424D01*
X007288Y018480D01*
X007246Y018534D01*
X007202Y018585D01*
X007154Y018634D01*
X007104Y018680D01*
X007098Y018673D01*
X007148Y018628D01*
X007195Y018579D01*
X007239Y018528D01*
X007280Y018475D01*
X007319Y018419D01*
X007354Y018362D01*
X007385Y018302D01*
X007413Y018241D01*
X007438Y018178D01*
X007459Y018114D01*
X007476Y018048D01*
X007490Y017982D01*
X007500Y017916D01*
X007506Y017848D01*
X007508Y017781D01*
X007499Y017781D01*
X007497Y017848D01*
X007491Y017915D01*
X007481Y017981D01*
X007468Y018046D01*
X007450Y018111D01*
X007429Y018175D01*
X007405Y018237D01*
X007377Y018298D01*
X007346Y018357D01*
X007311Y018414D01*
X007273Y018470D01*
X007232Y018523D01*
X007188Y018573D01*
X007142Y018621D01*
X007092Y018666D01*
X007086Y018660D01*
X007135Y018615D01*
X007182Y018567D01*
X007225Y018517D01*
X007266Y018464D01*
X007303Y018409D01*
X007338Y018353D01*
X007369Y018294D01*
X007397Y018234D01*
X007421Y018172D01*
X007442Y018109D01*
X007459Y018044D01*
X007472Y017979D01*
X007482Y017914D01*
X007488Y017847D01*
X007490Y017781D01*
X007481Y017781D01*
X007479Y017847D01*
X007473Y017913D01*
X007463Y017978D01*
X007450Y018042D01*
X007433Y018106D01*
X007413Y018169D01*
X007388Y018230D01*
X007361Y018290D01*
X007330Y018348D01*
X007296Y018405D01*
X007259Y018459D01*
X007218Y018511D01*
X007175Y018561D01*
X007129Y018608D01*
X007081Y018653D01*
X017210Y016748D02*
X017248Y016780D01*
X017247Y016780D02*
X017292Y016732D01*
X017339Y016687D01*
X017388Y016644D01*
X017440Y016604D01*
X017494Y016567D01*
X017550Y016534D01*
X017608Y016503D01*
X017667Y016476D01*
X017728Y016452D01*
X017790Y016432D01*
X017853Y016416D01*
X017917Y016402D01*
X017982Y016393D01*
X018047Y016387D01*
X018112Y016385D01*
X018113Y016336D01*
X018112Y016335D01*
X018044Y016337D01*
X017976Y016343D01*
X017909Y016353D01*
X017842Y016367D01*
X017776Y016384D01*
X017711Y016405D01*
X017648Y016430D01*
X017586Y016458D01*
X017525Y016490D01*
X017467Y016525D01*
X017411Y016564D01*
X017357Y016605D01*
X017305Y016650D01*
X017256Y016697D01*
X017210Y016747D01*
X017216Y016753D01*
X017262Y016703D01*
X017311Y016656D01*
X017362Y016612D01*
X017416Y016571D01*
X017472Y016533D01*
X017530Y016498D01*
X017590Y016467D01*
X017651Y016438D01*
X017714Y016414D01*
X017778Y016393D01*
X017844Y016376D01*
X017910Y016362D01*
X017977Y016352D01*
X018044Y016346D01*
X018112Y016344D01*
X018112Y016353D01*
X018045Y016355D01*
X017978Y016361D01*
X017912Y016371D01*
X017846Y016384D01*
X017781Y016402D01*
X017717Y016422D01*
X017655Y016447D01*
X017594Y016475D01*
X017534Y016506D01*
X017477Y016540D01*
X017421Y016578D01*
X017368Y016619D01*
X017317Y016663D01*
X017269Y016710D01*
X017223Y016759D01*
X017230Y016765D01*
X017275Y016716D01*
X017323Y016670D01*
X017374Y016626D01*
X017427Y016586D01*
X017482Y016548D01*
X017539Y016514D01*
X017598Y016483D01*
X017658Y016455D01*
X017720Y016431D01*
X017784Y016410D01*
X017848Y016393D01*
X017913Y016380D01*
X017979Y016370D01*
X018045Y016364D01*
X018112Y016362D01*
X018112Y016371D01*
X018046Y016373D01*
X017980Y016379D01*
X017915Y016389D01*
X017850Y016402D01*
X017786Y016419D01*
X017723Y016439D01*
X017662Y016463D01*
X017602Y016491D01*
X017543Y016522D01*
X017486Y016556D01*
X017432Y016593D01*
X017379Y016633D01*
X017329Y016676D01*
X017282Y016722D01*
X017237Y016771D01*
X017244Y016777D01*
X017288Y016728D01*
X017335Y016683D01*
X017385Y016640D01*
X017437Y016600D01*
X017491Y016563D01*
X017548Y016529D01*
X017606Y016499D01*
X017665Y016472D01*
X017726Y016448D01*
X017789Y016427D01*
X017852Y016411D01*
X017916Y016398D01*
X017981Y016388D01*
X018046Y016382D01*
X018112Y016380D01*
X018121Y016336D02*
X018121Y016386D01*
X018122Y016385D02*
X018188Y016387D01*
X018253Y016393D01*
X018318Y016403D01*
X018382Y016416D01*
X018446Y016433D01*
X018508Y016453D01*
X018569Y016477D01*
X018629Y016505D01*
X018687Y016535D01*
X018743Y016569D01*
X018797Y016606D01*
X018849Y016647D01*
X018899Y016690D01*
X018946Y016735D01*
X018990Y016784D01*
X019027Y016752D01*
X019028Y016751D01*
X018982Y016701D01*
X018932Y016653D01*
X018881Y016608D01*
X018827Y016566D01*
X018770Y016527D01*
X018711Y016492D01*
X018651Y016460D01*
X018589Y016431D01*
X018525Y016406D01*
X018460Y016385D01*
X018394Y016367D01*
X018326Y016353D01*
X018259Y016343D01*
X018190Y016337D01*
X018122Y016335D01*
X018122Y016344D01*
X018190Y016346D01*
X018258Y016352D01*
X018325Y016362D01*
X018391Y016376D01*
X018457Y016393D01*
X018522Y016415D01*
X018585Y016439D01*
X018647Y016468D01*
X018707Y016500D01*
X018765Y016535D01*
X018821Y016573D01*
X018875Y016615D01*
X018926Y016659D01*
X018975Y016707D01*
X019021Y016757D01*
X019014Y016763D01*
X018969Y016713D01*
X018920Y016666D01*
X018869Y016622D01*
X018816Y016581D01*
X018760Y016542D01*
X018703Y016507D01*
X018643Y016476D01*
X018582Y016448D01*
X018519Y016423D01*
X018455Y016402D01*
X018389Y016385D01*
X018323Y016371D01*
X018257Y016361D01*
X018189Y016355D01*
X018122Y016353D01*
X018122Y016362D01*
X018189Y016364D01*
X018256Y016370D01*
X018322Y016380D01*
X018387Y016393D01*
X018452Y016411D01*
X018516Y016432D01*
X018578Y016456D01*
X018639Y016484D01*
X018698Y016515D01*
X018755Y016550D01*
X018811Y016588D01*
X018864Y016629D01*
X018914Y016673D01*
X018962Y016719D01*
X019007Y016769D01*
X019001Y016775D01*
X018956Y016726D01*
X018908Y016679D01*
X018858Y016636D01*
X018805Y016595D01*
X018750Y016558D01*
X018694Y016523D01*
X018635Y016492D01*
X018575Y016464D01*
X018513Y016440D01*
X018450Y016419D01*
X018385Y016402D01*
X018320Y016389D01*
X018255Y016379D01*
X018188Y016373D01*
X018122Y016371D01*
X018122Y016380D01*
X018188Y016382D01*
X018254Y016388D01*
X018319Y016398D01*
X018383Y016411D01*
X018447Y016428D01*
X018510Y016448D01*
X018571Y016473D01*
X018631Y016500D01*
X018689Y016531D01*
X018746Y016565D01*
X018800Y016602D01*
X018852Y016643D01*
X018902Y016686D01*
X018949Y016732D01*
X018994Y016780D01*
X019209Y016748D02*
X019247Y016780D01*
X019246Y016780D02*
X019291Y016732D01*
X019338Y016687D01*
X019387Y016644D01*
X019439Y016604D01*
X019493Y016567D01*
X019549Y016534D01*
X019607Y016503D01*
X019666Y016476D01*
X019727Y016452D01*
X019789Y016432D01*
X019852Y016416D01*
X019916Y016402D01*
X019981Y016393D01*
X020046Y016387D01*
X020111Y016385D01*
X020112Y016336D01*
X020111Y016335D01*
X020043Y016337D01*
X019975Y016343D01*
X019908Y016353D01*
X019841Y016367D01*
X019775Y016384D01*
X019710Y016405D01*
X019647Y016430D01*
X019585Y016458D01*
X019524Y016490D01*
X019466Y016525D01*
X019410Y016564D01*
X019356Y016605D01*
X019304Y016650D01*
X019255Y016697D01*
X019209Y016747D01*
X019215Y016753D01*
X019261Y016703D01*
X019310Y016656D01*
X019361Y016612D01*
X019415Y016571D01*
X019471Y016533D01*
X019529Y016498D01*
X019589Y016467D01*
X019650Y016438D01*
X019713Y016414D01*
X019778Y016393D01*
X019843Y016376D01*
X019909Y016362D01*
X019976Y016352D01*
X020043Y016346D01*
X020111Y016344D01*
X020111Y016353D01*
X020044Y016355D01*
X019977Y016361D01*
X019911Y016371D01*
X019845Y016384D01*
X019780Y016402D01*
X019716Y016422D01*
X019654Y016447D01*
X019593Y016475D01*
X019533Y016506D01*
X019476Y016540D01*
X019420Y016578D01*
X019367Y016619D01*
X019316Y016663D01*
X019268Y016710D01*
X019222Y016759D01*
X019229Y016765D01*
X019274Y016716D01*
X019322Y016670D01*
X019373Y016626D01*
X019426Y016586D01*
X019481Y016548D01*
X019538Y016514D01*
X019597Y016483D01*
X019657Y016455D01*
X019719Y016431D01*
X019783Y016410D01*
X019847Y016393D01*
X019912Y016380D01*
X019978Y016370D01*
X020044Y016364D01*
X020111Y016362D01*
X020111Y016371D01*
X020045Y016373D01*
X019979Y016379D01*
X019914Y016389D01*
X019849Y016402D01*
X019785Y016419D01*
X019722Y016439D01*
X019661Y016463D01*
X019601Y016491D01*
X019542Y016522D01*
X019485Y016556D01*
X019431Y016593D01*
X019378Y016633D01*
X019328Y016676D01*
X019281Y016722D01*
X019236Y016771D01*
X019243Y016776D01*
X019287Y016728D01*
X019334Y016683D01*
X019384Y016640D01*
X019436Y016600D01*
X019490Y016563D01*
X019547Y016529D01*
X019605Y016499D01*
X019664Y016472D01*
X019725Y016448D01*
X019788Y016427D01*
X019851Y016411D01*
X019915Y016397D01*
X019980Y016388D01*
X020045Y016382D01*
X020111Y016380D01*
X020121Y016336D02*
X020121Y016386D01*
X020122Y016385D02*
X020188Y016387D01*
X020253Y016393D01*
X020318Y016403D01*
X020382Y016416D01*
X020446Y016433D01*
X020508Y016453D01*
X020569Y016477D01*
X020629Y016505D01*
X020687Y016535D01*
X020743Y016569D01*
X020797Y016606D01*
X020849Y016647D01*
X020899Y016690D01*
X020946Y016735D01*
X020990Y016784D01*
X021027Y016752D01*
X021028Y016751D01*
X020982Y016701D01*
X020932Y016653D01*
X020881Y016608D01*
X020827Y016566D01*
X020770Y016527D01*
X020711Y016492D01*
X020651Y016460D01*
X020589Y016431D01*
X020525Y016406D01*
X020460Y016385D01*
X020394Y016367D01*
X020326Y016353D01*
X020259Y016343D01*
X020190Y016337D01*
X020122Y016335D01*
X020122Y016344D01*
X020190Y016346D01*
X020258Y016352D01*
X020325Y016362D01*
X020391Y016376D01*
X020457Y016393D01*
X020522Y016415D01*
X020585Y016439D01*
X020647Y016468D01*
X020707Y016500D01*
X020765Y016535D01*
X020821Y016573D01*
X020875Y016615D01*
X020926Y016659D01*
X020975Y016707D01*
X021021Y016757D01*
X021014Y016763D01*
X020969Y016713D01*
X020920Y016666D01*
X020869Y016622D01*
X020816Y016581D01*
X020760Y016542D01*
X020703Y016507D01*
X020643Y016476D01*
X020582Y016448D01*
X020519Y016423D01*
X020455Y016402D01*
X020389Y016385D01*
X020323Y016371D01*
X020257Y016361D01*
X020189Y016355D01*
X020122Y016353D01*
X020122Y016362D01*
X020189Y016364D01*
X020256Y016370D01*
X020322Y016380D01*
X020387Y016393D01*
X020452Y016411D01*
X020516Y016432D01*
X020578Y016456D01*
X020639Y016484D01*
X020698Y016515D01*
X020755Y016550D01*
X020811Y016588D01*
X020864Y016629D01*
X020914Y016673D01*
X020962Y016719D01*
X021007Y016769D01*
X021001Y016775D01*
X020956Y016726D01*
X020908Y016679D01*
X020858Y016636D01*
X020805Y016595D01*
X020750Y016558D01*
X020694Y016523D01*
X020635Y016492D01*
X020575Y016464D01*
X020513Y016440D01*
X020450Y016419D01*
X020385Y016402D01*
X020320Y016389D01*
X020255Y016379D01*
X020188Y016373D01*
X020122Y016371D01*
X020122Y016380D01*
X020188Y016382D01*
X020254Y016388D01*
X020319Y016398D01*
X020383Y016411D01*
X020447Y016428D01*
X020510Y016448D01*
X020571Y016473D01*
X020631Y016500D01*
X020689Y016531D01*
X020746Y016565D01*
X020800Y016602D01*
X020852Y016643D01*
X020902Y016686D01*
X020949Y016732D01*
X020994Y016780D01*
D19*
X015601Y008410D02*
X015601Y008310D01*
X015601Y006210D02*
X015601Y006110D01*
D20*
X015010Y007260D02*
X015012Y007314D01*
X015020Y007367D01*
X015032Y007419D01*
X015049Y007471D01*
X015070Y007520D01*
X015096Y007567D01*
X015126Y007612D01*
X015160Y007653D01*
X015198Y007692D01*
X015239Y007727D01*
X015283Y007758D01*
X015329Y007785D01*
X015378Y007807D01*
X015429Y007825D01*
X015481Y007839D01*
X015534Y007847D01*
X015588Y007851D01*
X015641Y007850D01*
X015695Y007844D01*
X015747Y007833D01*
X015799Y007817D01*
X015849Y007797D01*
X015896Y007772D01*
X015942Y007743D01*
X015984Y007710D01*
X016024Y007673D01*
X016059Y007633D01*
X016091Y007590D01*
X016119Y007544D01*
X016143Y007495D01*
X016162Y007445D01*
X016177Y007393D01*
X016186Y007340D01*
X016191Y007287D01*
X016191Y007233D01*
X016186Y007180D01*
X016177Y007127D01*
X016162Y007075D01*
X016143Y007025D01*
X016119Y006976D01*
X016091Y006930D01*
X016059Y006887D01*
X016024Y006847D01*
X015984Y006810D01*
X015942Y006777D01*
X015897Y006748D01*
X015849Y006723D01*
X015799Y006703D01*
X015747Y006687D01*
X015695Y006676D01*
X015641Y006670D01*
X015588Y006669D01*
X015534Y006673D01*
X015481Y006681D01*
X015429Y006695D01*
X015378Y006713D01*
X015329Y006735D01*
X015283Y006762D01*
X015239Y006793D01*
X015198Y006828D01*
X015160Y006867D01*
X015126Y006908D01*
X015096Y006953D01*
X015070Y007000D01*
X015049Y007049D01*
X015032Y007101D01*
X015020Y007153D01*
X015012Y007206D01*
X015010Y007260D01*
M02*
