G75*
G70*
%OFA0B0*%
%FSLAX24Y24*%
%IPPOS*%
%LPD*%
%AMOC8*
5,1,8,0,0,1.08239X$1,22.5*
%
%ADD10C,0.1340*%
%ADD11OC8,0.0710*%
%ADD12C,0.0710*%
%ADD13O,0.0600X0.1120*%
%ADD14OC8,0.0680*%
%ADD15OC8,0.0600*%
%ADD16OC8,0.0640*%
%ADD17O,0.1730X0.0905*%
%ADD18O,0.0905X0.1730*%
%ADD19C,0.2180*%
D10*
X009105Y003260D03*
X026605Y009260D03*
X005105Y019510D03*
D11*
X007605Y015510D03*
X010605Y012260D03*
X025105Y012010D03*
D12*
X025105Y013010D03*
X010605Y013260D03*
X006605Y015510D03*
D13*
X006605Y013760D03*
X005605Y013760D03*
X004605Y013760D03*
X007605Y013760D03*
X007605Y010760D03*
X006605Y010760D03*
X005605Y010760D03*
X004605Y010760D03*
X016105Y012010D03*
X017105Y012010D03*
X018105Y012010D03*
X019105Y012010D03*
X020105Y012010D03*
X021105Y012010D03*
X022105Y012010D03*
X022105Y009010D03*
X021105Y009010D03*
X020105Y009010D03*
X019105Y009010D03*
X018105Y009010D03*
X017105Y009010D03*
X016105Y009010D03*
D14*
X004605Y002510D03*
X006605Y002510D03*
X011105Y002510D03*
X015105Y004260D03*
X011105Y008510D03*
X006605Y008510D03*
X004605Y008510D03*
X013605Y013510D03*
X019605Y013510D03*
X020105Y018510D03*
X014105Y018510D03*
X021105Y004260D03*
D15*
X018105Y005760D03*
X018105Y006760D03*
X013605Y009260D03*
X013605Y011260D03*
X008105Y007010D03*
X008105Y006010D03*
X014105Y016010D03*
X015105Y017010D03*
X016105Y016010D03*
X020105Y016010D03*
X021105Y016010D03*
D16*
X009605Y008510D03*
X009605Y005510D03*
D17*
X023605Y004526D03*
X023605Y006494D03*
X024105Y015776D03*
X024105Y017744D03*
D18*
X012089Y017760D03*
X010121Y017760D03*
D19*
X014605Y007260D03*
M02*
