G75*
G70*
%OFA0B0*%
%FSLAX24Y24*%
%IPPOS*%
%LPD*%
%AMOC8*
5,1,8,0,0,1.08239X$1,22.5*
%
%ADD10OC8,0.0630*%
%ADD11C,0.0630*%
%ADD12O,0.0520X0.1040*%
%ADD13OC8,0.0600*%
%ADD14OC8,0.0520*%
%ADD15OC8,0.0560*%
%ADD16O,0.1650X0.0825*%
%ADD17O,0.0825X0.1650*%
%ADD18C,0.2100*%
D10*
X005101Y012010D03*
X019601Y012260D03*
X022601Y015510D03*
D11*
X023601Y015510D03*
X019601Y013260D03*
X005101Y013010D03*
D12*
X008101Y012010D03*
X009101Y012010D03*
X010101Y012010D03*
X011101Y012010D03*
X012101Y012010D03*
X013101Y012010D03*
X014101Y012010D03*
X014101Y009010D03*
X013101Y009010D03*
X012101Y009010D03*
X011101Y009010D03*
X010101Y009010D03*
X009101Y009010D03*
X008101Y009010D03*
X022601Y010760D03*
X023601Y010760D03*
X024601Y010760D03*
X025601Y010760D03*
X025601Y013760D03*
X024601Y013760D03*
X023601Y013760D03*
X022601Y013760D03*
D13*
X016601Y013510D03*
X010601Y013510D03*
X010101Y018510D03*
X016101Y018510D03*
X019101Y008510D03*
X023601Y008510D03*
X025601Y008510D03*
X025601Y002510D03*
X023601Y002510D03*
X019101Y002510D03*
X015101Y004260D03*
X009101Y004260D03*
D14*
X012101Y005760D03*
X012101Y006760D03*
X016601Y009260D03*
X016601Y011260D03*
X022101Y007010D03*
X022101Y006010D03*
X016101Y016010D03*
X015101Y017010D03*
X014101Y016010D03*
X010101Y016010D03*
X009101Y016010D03*
D15*
X020601Y008510D03*
X020601Y005510D03*
D16*
X006601Y004526D03*
X006601Y006494D03*
X006101Y015776D03*
X006101Y017744D03*
D17*
X018117Y017760D03*
X020085Y017760D03*
D18*
X015601Y007260D03*
M02*
