%
M48
M72
T01C0.0320
T02C0.0360
T03C0.0400
T04C0.0550
T05C0.1102
T06C0.1260
%
T01
X8101Y9010
X9101Y9010
X10101Y9010
X11101Y9010
X12101Y9010
X13101Y9010
X14101Y9010
X16601Y9260
X16601Y11260
X14101Y12010
X13101Y12010
X12101Y12010
X11101Y12010
X10101Y12010
X9101Y12010
X8101Y12010
X5101Y12010
X5101Y13010
X9101Y16010
X10101Y16010
X14101Y16010
X15101Y17010
X16101Y16010
X19601Y13260
X19601Y12260
X22601Y13760
X23601Y13760
X24601Y13760
X25601Y13760
X23601Y15510
X22601Y15510
X22601Y10760
X23601Y10760
X24601Y10760
X25601Y10760
X22101Y7010
X22101Y6010
X12101Y5760
X12101Y6760
T02
X20601Y5510
X20601Y8510
T03
X19101Y8510
X23601Y8510
X25601Y8510
X25601Y2510
X23601Y2510
X19101Y2510
X15101Y4260
X9101Y4260
X10601Y13510
X16601Y13510
X16101Y18510
X10101Y18510
T04
X6601Y4526
X6601Y6494
X6101Y15776
X6101Y17744
X18117Y17760
X20085Y17760
T05
X15601Y7260
T06
X21101Y3260
X3601Y9260
X25101Y19510
M30
